<?xml version="1.0" encoding="UTF-8" standalone="no"?>
<svg
   xmlns:osb="http://www.openswatchbook.org/uri/2009/osb"
   xmlns:dc="http://purl.org/dc/elements/1.1/"
   xmlns:cc="http://creativecommons.org/ns#"
   xmlns:rdf="http://www.w3.org/1999/02/22-rdf-syntax-ns#"
   xmlns:svg="http://www.w3.org/2000/svg"
   xmlns="http://www.w3.org/2000/svg"
   xmlns:xlink="http://www.w3.org/1999/xlink"
   xmlns:sodipodi="http://sodipodi.sourceforge.net/DTD/sodipodi-0.dtd"
   xmlns:inkscape="http://www.inkscape.org/namespaces/inkscape"
   sodipodi:docname="logo.svg"
   inkscape:version="1.0 (4035a4fb49, 2020-05-01)"
   id="svg8"
   version="1.1"
   viewBox="0 0 132.29167 132.29167"
   height="500"
   width="500"
   inkscape:export-filename="C:\Users\dylan\Desktop\256.png"
   inkscape:export-xdpi="50.718182"
   inkscape:export-ydpi="50.718182">
  <defs
     id="defs2">
    <linearGradient
       id="Gradient"
       inkscape:collect="always">
      <stop
         id="stop2826"
         offset="0"
         style="stop-color:#d400dc;stop-opacity:1" />
      <stop
         id="stop2828"
         offset="1"
         style="stop-color:#0096cc;stop-opacity:1" />
    </linearGradient>
    <linearGradient
       osb:paint="gradient"
       id="linearGradient858"
       inkscape:collect="always">
      <stop
         id="stop854"
         offset="0"
         style="stop-color:#000000;stop-opacity:1;" />
      <stop
         id="stop856"
         offset="1"
         style="stop-color:#000000;stop-opacity:0;" />
    </linearGradient>
    <filter
       inkscape:collect="always"
       style="color-interpolation-filters:sRGB"
       id="filter5014"
       x="-0.0384"
       width="1.0768"
       y="-0.0384"
       height="1.0768">
      <feGaussianBlur
         inkscape:collect="always"
         stdDeviation="1.905"
         id="feGaussianBlur5016" />
    </filter>
    <linearGradient
       gradientUnits="userSpaceOnUse"
       y2="80.317329"
       x2="80.320824"
       y1="51.971397"
       x1="51.974884"
       id="linearGradient2832"
       xlink:href="#Gradient"
       inkscape:collect="always" />
    <filter
       height="1.2396526"
       y="-0.1198263"
       width="1.2396562"
       x="-0.1198281"
       id="filter2840"
       style="color-interpolation-filters:sRGB"
       inkscape:collect="always">
      <feGaussianBlur
         id="feGaussianBlur2842"
         stdDeviation="3.5760487"
         inkscape:collect="always" />
    </filter>
  </defs>
  <sodipodi:namedview
     inkscape:snap-nodes="true"
     inkscape:window-maximized="0"
     inkscape:window-y="1"
     inkscape:window-x="543"
     inkscape:window-height="1047"
     inkscape:window-width="1295"
     inkscape:snap-grids="true"
     inkscape:pagecheckerboard="true"
     width="49px"
     units="px"
     showgrid="false"
     inkscape:document-rotation="0"
     inkscape:current-layer="layer2"
     inkscape:document-units="mm"
     inkscape:cy="1260.3318"
     inkscape:cx="1142.0056"
     inkscape:zoom="0.24748737"
     inkscape:pageshadow="2"
     inkscape:pageopacity="0.0"
     borderopacity="1.0"
     bordercolor="#666666"
     pagecolor="#ffffff"
     id="base" />
  <metadata
     id="metadata5">
    <rdf:RDF>
      <cc:Work
         rdf:about="">
        <dc:format>image/svg+xml</dc:format>
        <dc:type
           rdf:resource="http://purl.org/dc/dcmitype/StillImage" />
        <dc:title />
      </cc:Work>
    </rdf:RDF>
  </metadata>
  <g
     style="display:inline"
     inkscape:groupmode="layer"
     id="layer1"
     inkscape:label="Base Circle"
     sodipodi:insensitive="true">
    <circle
       inkscape:label="Shadow"
       style="display:inline;opacity:0.36;fill:#000000;fill-opacity:1;fill-rule:evenodd;stroke-width:0.256424;filter:url(#filter5014)"
       id="circle3352"
       cx="66.145836"
       cy="68.065247"
       r="59.53125"
       inkscape:transform-center-x="6.4946494"
       inkscape:transform-center-y="3.367596"
       inkscape:export-xdpi="38.817287"
       inkscape:export-ydpi="38.817287"
       sodipodi:insensitive="true" />
    <circle
       inkscape:label="Circle"
       inkscape:transform-center-y="3.367596"
       inkscape:transform-center-x="6.4946494"
       r="59.53125"
       cy="66.145836"
       cx="66.145836"
       id="path1917"
       style="display:inline;fill:#ffffff;fill-opacity:1;fill-rule:evenodd;stroke-width:0.256424"
       sodipodi:insensitive="true" />
  </g>
  <g
     style="display:inline"
     inkscape:label="Base Icon"
     id="layer2"
     inkscape:groupmode="layer"
     sodipodi:insensitive="true">
    <path
       inkscape:export-ydpi="4.5771084"
       inkscape:export-xdpi="4.5771084"
       inkscape:export-filename="C:\Users\dylan\Desktop\16.png"
       sodipodi:insensitive="true"
       inkscape:label="Shadow"
       style="opacity:0.16;fill:#000000;fill-opacity:1;stroke-width:3.548;stroke-miterlimit:4;stroke-dasharray:none;filter:url(#filter2840)"
       d="M 70.493758,106.55817 64.711033,92.970643 c 5.569856,-2.057672 10.784929,-4.824808 15.609791,-8.053308 L 70.493758,106.55817 M 43.921635,72.18124 30.334044,66.398526 51.974883,56.571405 C 48.746497,61.396346 45.979285,66.611322 43.921635,72.18124 M 100.57804,36.314182 c 0,0 -17.560985,-7.524598 -37.640832,12.558844 -7.769414,7.769447 -12.416879,16.319272 -15.432408,23.80485 -0.993314,2.660799 -0.319266,5.569924 1.631931,7.556543 l 7.556551,7.52111 c 1.951214,1.986743 4.860338,2.62526 7.521075,1.631948 7.592024,-2.909122 16.03551,-7.662972 23.804904,-15.432418 C 108.09917,53.875214 100.57804,36.314182 100.57804,36.314182 M 75.495962,61.396346 c -2.767167,-2.767266 -2.767167,-7.27279 0,-10.039916 2.767189,-2.767248 7.272752,-2.767248 10.039924,0 2.731722,2.767126 2.767191,7.27265 0,10.039916 -2.767172,2.767115 -7.272735,2.767115 -10.039924,0 m -20.079831,25.082009 -5.00223,-5.002192 5.00223,5.002192 M 46.050245,105.88415 58.963788,92.970643 c -1.206231,-0.319115 -2.376935,-0.85144 -3.44123,-1.596416 L 41.048041,105.88415 h 5.002204 m -15.042142,0 h 5.00223 L 52.93274,88.997295 47.89505,83.994958 31.008103,100.88196 v 5.00219 m 0,-10.039912 14.509995,-14.474523 C 44.77314,80.305066 44.240943,79.170173 43.921635,77.92854 L 31.008103,90.842026 Z"
       id="path20" />
    <path
       inkscape:export-ydpi="5.6740241"
       inkscape:export-xdpi="5.6740241"
       inkscape:export-filename="C:\Users\dylan\Desktop\16.png"
       sodipodi:insensitive="true"
       id="path2834"
       d="M 70.493758,101.95816 64.711033,88.370634 c 5.569856,-2.057672 10.784929,-4.824808 15.609791,-8.053308 L 70.493758,101.95816 M 43.921635,67.581231 30.334044,61.798517 51.974883,51.971396 c -3.228386,4.824941 -5.995598,10.039917 -8.053248,15.609835 M 100.57804,31.714173 c 0,0 -17.560985,-7.524598 -37.640832,12.558844 -7.769414,7.769447 -12.416879,16.319272 -15.432408,23.80485 -0.993314,2.660799 -0.319266,5.569924 1.631931,7.556543 l 7.556551,7.52111 c 1.951214,1.986743 4.860338,2.62526 7.521075,1.631948 C 71.806381,81.878346 80.249867,77.124496 88.019261,69.35505 108.09917,49.275205 100.57804,31.714173 100.57804,31.714173 M 75.495962,56.796337 c -2.767167,-2.767266 -2.767167,-7.27279 0,-10.039916 2.767189,-2.767248 7.272752,-2.767248 10.039924,0 2.731722,2.767126 2.767191,7.27265 0,10.039916 -2.767172,2.767115 -7.272735,2.767115 -10.039924,0 m -20.079831,25.082009 -5.00223,-5.002192 5.00223,5.002192 M 46.050245,101.28414 58.963788,88.370634 c -1.206231,-0.319115 -2.376935,-0.85144 -3.44123,-1.596416 L 41.048041,101.28414 h 5.002204 m -15.042142,0 h 5.00223 L 52.93274,84.397286 47.89505,79.394949 31.008103,96.281947 v 5.002193 m 0,-10.039911 14.509995,-14.474523 C 44.77314,75.705057 44.240943,74.570164 43.921635,73.328531 L 31.008103,86.242017 Z"
       style="fill:url(#linearGradient2832);fill-opacity:1;stroke-width:3.548;stroke-miterlimit:4;stroke-dasharray:none"
       inkscape:label="Icon" />
  </g>
</svg>
